<?xml version="1.0"?>
<svg xmlns="http://www.w3.org/2000/svg" xmlns:xlink="http://www.w3.org/1999/xlink" xmlns:svgjs="http://svgjs.com/svgjs" version="1.1" width="512" height="512" x="0" y="0" viewBox="0 0 512 512" style="enable-background:new 0 0 512 512" xml:space="preserve" class=""><g>
<g xmlns="http://www.w3.org/2000/svg" id="surface1">
<path d="M 178.027344 20.085938 C 151.65625 30.039062 133.640625 52.429688 128.085938 78.066406 C 101.863281 77.257812 75.777344 89.324219 59.746094 112.507812 C 43.703125 135.699219 41.621094 164.378906 51.648438 188.636719 C 29.605469 202.886719 15 227.65625 15 255.855469 C 15 284.054688 29.605469 308.828125 51.648438 323.074219 C 41.621094 347.332031 43.703125 376.015625 59.746094 399.207031 C 75.769531 422.375 101.835938 434.441406 128.042969 433.648438 C 133.859375 460.582031 153.429688 483.789062 181.527344 492.917969 C 208.003906 501.523438 235.707031 495.566406 256 479.476562 L 256 32.265625 C 234.6875 15.386719 205.3125 9.789062 178.027344 20.085938 Z M 178.027344 20.085938 " style="" fill="#27292d" data-original="#cbf2f5" class=""/>
<path d="M 497 255.855469 C 497 227.65625 482.394531 202.882812 460.351562 188.636719 C 470.378906 164.378906 468.296875 135.699219 452.253906 112.507812 C 436.222656 89.324219 410.136719 77.257812 383.914062 78.066406 C 378.359375 52.429688 360.34375 30.035156 333.972656 20.085938 C 306.6875 9.789062 277.3125 15.386719 256 32.265625 L 256 479.476562 C 276.292969 495.566406 303.996094 501.523438 330.472656 492.917969 C 358.570312 483.789062 378.140625 460.582031 383.957031 433.648438 C 410.164062 434.441406 436.230469 422.375 452.253906 399.207031 C 468.296875 376.015625 470.378906 347.332031 460.351562 323.074219 C 482.394531 308.828125 497 284.058594 497 255.855469 Z M 497 255.855469 " style="" fill="#dc9826" data-original="#9ee0e7" class=""/>
<path d="M 37.785156 194.367188 C 25.394531 164.390625 28.992188 130.597656 47.40625 103.972656 C 65.8125 77.363281 96.15625 62.097656 128.546875 63.074219 L 127.621094 93.0625 C 105.445312 92.367188 84.671875 102.832031 72.082031 121.039062 C 59.480469 139.253906 57.027344 162.382812 65.507812 182.90625 Z M 37.785156 194.367188 " style="" fill="#dc9826" data-original="#9ee0e7" class=""/>
<path d="M 95 350.859375 C 42.617188 350.859375 0 308.242188 0 255.859375 C 0 203.476562 42.617188 160.859375 95 160.859375 L 95 190.859375 C 59.160156 190.859375 30 220.015625 30 255.859375 C 30 291.699219 59.160156 320.859375 95 320.859375 Z M 95 350.859375 " style="" fill="#dc9826" data-original="#9ee0e7" class=""/>
<path d="M 191 255.859375 L 161 255.859375 C 161 203.476562 203.617188 160.859375 256 160.859375 L 256 190.859375 C 220.160156 190.859375 191 220.015625 191 255.859375 Z M 191 255.859375 " style="" fill="#dc9826" data-original="#9ee0e7" class=""/>
<path d="M 125.558594 448.6875 C 94.285156 448.6875 65.242188 433.527344 47.40625 407.742188 C 28.992188 381.113281 25.394531 347.324219 37.785156 317.347656 L 65.511719 328.804688 C 57.027344 349.332031 59.484375 372.460938 72.082031 390.675781 C 84.664062 408.867188 105.40625 419.324219 127.589844 418.652344 L 128.5 448.640625 C 127.515625 448.667969 126.535156 448.6875 125.558594 448.6875 Z M 125.558594 448.6875 " style="" fill="#dc9826" data-original="#9ee0e7" class=""/>
<path d="M 474.214844 194.367188 L 446.492188 182.90625 C 454.972656 162.382812 452.515625 139.253906 439.917969 121.039062 C 427.328125 102.835938 406.578125 92.378906 384.378906 93.0625 L 383.453125 63.074219 C 415.867188 62.097656 446.1875 77.363281 464.59375 103.972656 C 483.007812 130.601562 486.605469 164.390625 474.214844 194.367188 Z M 474.214844 194.367188 " style="" fill="#dc9826" data-original="#70cfd8" class=""/>
<path d="M 417 350.859375 L 417 320.859375 C 452.839844 320.859375 482 291.699219 482 255.859375 C 482 220.015625 452.839844 190.859375 417 190.859375 L 417 160.859375 C 469.382812 160.859375 512 203.476562 512 255.859375 C 512 308.242188 469.382812 350.859375 417 350.859375 Z M 417 350.859375 " style="" fill="#dc9826" data-original="#70cfd8" class=""/>
<path d="M 256 350.910156 L 256 320.910156 C 291.839844 320.910156 321 291.753906 321 255.910156 L 351 255.910156 C 351 308.292969 308.382812 350.910156 256 350.910156 Z M 256 350.910156 " style="" fill="#dc9826" data-original="#70cfd8" class=""/>
<path d="M 367.570312 396.75 C 372.933594 413.261719 371.550781 430.875 363.667969 446.34375 C 355.785156 461.816406 342.351562 473.289062 325.835938 478.65625 C 307.300781 484.679688 287.28125 482.054688 271 471.75 L 271 39.988281 C 288.21875 29.058594 309.300781 26.808594 328.675781 34.121094 C 344.921875 40.25 357.804688 52.339844 364.957031 68.160156 C 372.109375 83.980469 372.671875 101.640625 366.539062 117.886719 L 394.609375 128.476562 C 403.566406 104.734375 402.746094 78.925781 392.292969 55.804688 C 381.84375 32.679688 363.011719 15.011719 339.269531 6.054688 C 311.777344 -4.324219 280.820312 -1.160156 256 14.019531 L 246 255.859375 L 256 497.746094 C 271.078125 507.027344 288.285156 511.851562 305.71875 511.851562 C 315.558594 511.851562 325.472656 510.316406 335.109375 507.1875 C 384.929688 490.996094 412.289062 437.296875 396.101562 387.480469 Z M 367.570312 396.75 " style="" fill="#dc9826" data-original="#70cfd8" class=""/>
<path d="M 172.730469 6.050781 C 148.988281 15.011719 130.15625 32.679688 119.707031 55.804688 C 109.253906 78.925781 108.433594 104.734375 117.390625 128.476562 L 145.460938 117.882812 C 139.328125 101.640625 139.890625 83.980469 147.042969 68.160156 C 154.195312 52.339844 167.078125 40.25 183.324219 34.121094 C 202.699219 26.808594 223.785156 29.058594 241 39.988281 L 241 471.75 C 224.71875 482.054688 204.699219 484.675781 186.160156 478.65625 C 169.648438 473.289062 156.214844 461.816406 148.332031 446.34375 C 140.449219 430.875 139.0625 413.261719 144.429688 396.75 L 115.898438 387.480469 C 108.058594 411.613281 110.082031 437.355469 121.601562 459.964844 C 133.121094 482.574219 152.757812 499.34375 176.890625 507.1875 C 186.53125 510.316406 196.441406 511.851562 206.285156 511.851562 C 223.710938 511.851562 240.921875 507.027344 256 497.746094 C 256 497.746094 256 14.019531 256 14.019531 C 231.179688 -1.160156 200.226562 -4.324219 172.730469 6.050781 Z M 172.730469 6.050781 " style="" fill="#dc9826" data-original="#9ee0e7" class=""/>
<path d="M 386.441406 448.6875 C 385.464844 448.6875 384.484375 448.671875 383.5 448.640625 L 384.410156 418.65625 C 385.085938 418.675781 385.757812 418.683594 386.429688 418.683594 C 407.839844 418.6875 427.714844 408.316406 439.917969 390.671875 C 452.515625 372.460938 454.972656 349.332031 446.488281 328.804688 L 474.214844 317.347656 C 486.605469 347.324219 483.007812 381.113281 464.59375 407.738281 C 446.757812 433.527344 417.710938 448.683594 386.441406 448.6875 Z M 386.441406 448.6875 " style="" fill="#dc9826" data-original="#70cfd8" class=""/>
</g>
</g></svg>
