<?xml version="1.0" standalone="no"?>
<!DOCTYPE svg PUBLIC "-//W3C//DTD SVG 20010904//EN"
 "http://www.w3.org/TR/2001/REC-SVG-20010904/DTD/svg10.dtd">
<svg version="1.0" xmlns="http://www.w3.org/2000/svg"
 width="142.000000pt" height="122.000000pt" viewBox="0 0 142.000000 122.000000"
 preserveAspectRatio="xMidYMid meet">
<metadata>
Created by potrace 1.16, written by Peter Selinger 2001-2019
</metadata>
<g transform="translate(0.000000,122.000000) scale(0.100000,-0.100000)"
fill="#000000" stroke="none">
<path d="M490 938 c-90 -156 -238 -411 -327 -568 l-163 -284 24 -41 24 -40
660 -3 661 -2 25 42 25 43 -21 35 c-11 19 -112 193 -223 385 -112 193 -250
431 -307 530 l-105 180 -54 3 -54 3 -165 -283z m226 7 c4 -8 11 -12 17 -8 6 3
7 1 3 -5 -4 -7 6 -32 23 -56 46 -67 45 -69 -29 -67 l-66 2 -44 -78 c-101 -180
-163 -283 -171 -283 -5 0 -11 11 -15 24 -4 18 20 68 107 217 62 107 122 211
133 231 23 41 33 47 42 23z m314 -522 c74 -130 137 -240 138 -245 2 -4 -37 -8
-87 -8 -50 0 -91 2 -91 5 0 3 14 28 31 56 l32 51 -20 42 c-11 22 -57 103 -102
180 -44 76 -81 142 -81 147 0 5 10 9 23 9 19 0 44 -38 157 -237z m-265 42 c30
-47 55 -88 55 -90 0 -3 -47 -5 -105 -5 -58 0 -105 3 -105 7 0 8 92 173 97 173
1 0 28 -38 58 -85z m-387 -200 l33 -55 211 0 c187 0 209 -2 204 -16 -3 -9 -6
-20 -6 -25 0 -5 -119 -9 -285 -9 -157 0 -285 3 -285 6 0 11 84 154 89 154 4 0
21 -25 39 -55z"/>
</g>
</svg>
